# xmcd
#
# Track frame offsets:
#	150
#	10285
#	23565
#	35641
#	52110
#	61536
#	74467
#	87448
#	102002
#	113220
#	127468
#	142045
#	152702
#	162882
#
# Disc length: 2305 seconds
#
# Revision: 1
# Processed by: cddbd v1.5.2PL0 Copyright (c) Steve Scherf et al.
# Submitted via: audiograbber 1.83.01
#
DISCID=c008ff0e
DTITLE=NERO BURNS - Flame On!
DYEAR=2005
DGENRE=R'n'R
TTITLE0=Caffeine Shake
TTITLE1=Train Train
TTITLE2=Waiting For Elvis
TTITLE3=Tombstone Heart
TTITLE4=Missing Link
TTITLE5=River Of Sleaze
TTITLE6=Red Velvet Hell
TTITLE7=Sucker
TTITLE8=Zombie Queen
TTITLE9=Move It On
TTITLE10=Bitter Moon
TTITLE11=Black Lava
TTITLE12=Voices (On The Radio)
TTITLE13=Voodootrashabillybeatpsychosisdeathrayrocknroll
EXTD=
EXTT0=
EXTT1=
EXTT2=
EXTT3=
EXTT4=
EXTT5=
EXTT6=
EXTT7=
EXTT8=
EXTT9=
EXTT10=
EXTT11=
EXTT12=
EXTT13=
PLAYORDER=
